<svg xmlns="http://www.w3.org/2000/svg" width="32" height="32" viewBox="0 0 8.467 8.467">
    <path fill="#009975" d="m 1.0219639,2.3825436 c -0.26935649,0 -0.49402685,0.2246704 -0.49402685,0.4940267 v 1.1270629
     c 0,0.2693564 0.22467036,0.4940268 0.49402685,0.4940268 h 6.4197629 c 0.2693563,0 0.4940268,-0.2246704 0.4940267,
     -0.4940268 V 2.8765703 c 0,-0.2693563 -0.2246704,-0.4940267 -0.4940267,-0.4940267 z"
          color="#000"
          font-family="sans-serif"
          font-weight="400"
          overflow="visible"
          white-space="normal"
          style="line-height:normal;font-variant-ligatures:normal;font-variant-position:normal;font-variant-caps:normal;
          font-variant-numeric:normal;font-variant-alternates:normal;font-feature-settings:normal;text-indent:0;text-align:start;
          text-decoration-line:none;text-decoration-style:solid;text-decoration-color:#000;text-transform:none;text-orientation:mixed;
          shape-padding:0;isolation:auto;mix-blend-mode:normal"/>
    <path fill="#d9d872" d="M 1.0571037,3.9684934 A 0.26460981,0.26460981 0 0 0 0.80492271,4.3121416 L 1.7816072,
    7.4855914 a 0.26460981,0.26460981 0 0 0 0.252181,0.1875853 H 6.4299023 A 0.26460981,0.26460981 0 0 0 6.6841503,
    7.4855914 L 7.6608349,4.3121416 A 0.26460981,0.26460981 0 0 0 7.4065869,3.9684934 Z" color="#000"
          font-family="sans-serif" font-weight="400" overflow="visible" white-space="normal" style="line-height:normal;font-variant-ligatures:normal;font-variant-position:normal;font-variant-caps:normal;font-variant-numeric:normal;font-variant-alternates:normal;font-feature-settings:normal;text-indent:0;text-align:start;text-decoration-line:none;text-decoration-style:solid;text-decoration-color:#000;text-transform:none;text-orientation:mixed;shape-padding:0;isolation:auto;mix-blend-mode:normal"/>
    <path fill="#454d66" d="M 12.955078 2.9960938 A 1.0001001 1.0001001 0 0 0 12.349609 3.2480469 L 5.6269531 9.0058594
     L 3.8671875 9.0058594 C 2.849148 9.0058594 2 9.8550073 2 10.873047 L 2 15.132812 C 2 15.923337 2.5150641 16.610416
     3.2207031 16.880859 L 6.7402344 28.302734 A 1.0001001 1.0001001 0 0 0 7.6914062 29.003906 L 24.308594 29.003906 A
     1.0001001 1.0001001 0 0 0 25.261719 28.302734 L 28.779297 16.880859 C 29.485126 16.610516 30 15.923474 30 15.132812
      L 30 10.873047 C 30 9.8550073 29.150852 9.0058594 28.132812 9.0058594 L 26.412109 9.0058594 L 19.650391 3.2519531
      A 1.0001001 0.99252778 0 0 0 18.912109 3.0019531 A 1.0001001 0.99252778 0 0 0 18.351562 4.7617188 L 23.345703
      9.0058594 L 8.6992188 9.0058594 L 13.648438 4.7617188 A 1.0001001 1.0001001 0 0 0 12.955078 2.9960938 z M 4.0019531
      11.005859 L 5.9296875 11.005859 A 1.0001001 1.0001001 0 0 0 6.0683594 11.005859 L 28 11.005859 L 28 15.007812 L
       4.0019531 15.007812 L 4.0019531 11.005859 z M 5.3515625 17.007812 L 26.648438 17.007812 L 23.570312 27.003906
       L 8.4296875 27.003906 L 5.3515625 17.007812 z " color="#000" font-family="sans-serif" font-weight="400" overflow="visible" transform="scale(.26458)" white-space="normal" style="line-height:normal;font-variant-ligatures:normal;font-variant-position:normal;font-variant-caps:normal;font-variant-numeric:normal;font-variant-alternates:normal;font-feature-settings:normal;text-indent:0;text-align:start;text-decoration-line:none;text-decoration-style:solid;text-decoration-color:#000;text-transform:none;text-orientation:mixed;shape-padding:0;isolation:auto;mix-blend-mode:normal"/><path fill="#454d66" style="line-height:normal;font-variant-ligatures:normal;font-variant-position:normal;font-variant-caps:normal;font-variant-numeric:normal;font-variant-alternates:normal;font-feature-settings:normal;text-indent:0;text-align:start;text-decoration-line:none;text-decoration-style:solid;text-decoration-color:#000;text-transform:none;text-orientation:mixed;shape-padding:0;isolation:auto;mix-blend-mode:normal" d="M2.9056455 5.0226826A.26460981.26460981 0 0 0 2.6458799 5.2922138v1.0585938a.26464845.26464845 0 1 0 .5292969 0V5.2922138A.26460981.26460981 0 0 0 2.9056455 5.0226826zM5.5521299 5.0226826A.26460981.26460981 0 0 0 5.2904112 5.2922138v1.0585938a.26464845.26464845 0 1 0 .5292969 0V5.2922138A.26460981.26460981 0 0 0 5.5521299 5.0226826zM4.2298643 5.0226826A.26460981.26460981 0 0 0 3.9681455 5.2922138v1.0585938a.26464845.26464845 0 1 0 .5292969 0V5.2922138A.26460981.26460981 0 0 0 4.2298643 5.0226826z" color="#000" font-family="sans-serif" font-weight="400" overflow="visible" white-space="normal"/></svg>
