<svg width="55" height="55" viewBox="0 0 55 55" fill="none" xmlns="http://www.w3.org/2000/svg">
<path d="M33 32.5L44 21.5" stroke="#E92020" stroke-width="3" stroke-linecap="round" stroke-linejoin="round"/>
<path d="M33.9167 24.3333C34.9752 24.3333 35.8333 23.4752 35.8333 22.4167C35.8333 21.3581 34.9752 20.5 33.9167 20.5C32.8581 20.5 32 21.3581 32 22.4167C32 23.4752 32.8581 24.3333 33.9167 24.3333Z" stroke="#E92020" stroke-width="2" stroke-linecap="round" stroke-linejoin="round"/>
<path d="M43.0833 33.5C44.1419 33.5 45 32.6419 45 31.5833C45 30.5248 44.1419 29.6667 43.0833 29.6667C42.0248 29.6667 41.1667 30.5248 41.1667 31.5833C41.1667 32.6419 42.0248 33.5 43.0833 33.5Z" stroke="#E92020" stroke-width="2" stroke-linecap="round" stroke-linejoin="round"/>
<path d="M10.256 33C10.16 33 10.08 32.968 10.016 32.904C9.952 32.8293 9.92 32.744 9.92 32.648C9.92 32.5947 9.93067 32.5467 9.952 32.504L13.648 24.216H8.864C8.74667 24.216 8.64533 24.1787 8.56 24.104C8.48533 24.0187 8.448 23.9173 8.448 23.8V22.2C8.448 22.0827 8.48533 21.9867 8.56 21.912C8.64533 21.8373 8.74667 21.8 8.864 21.8H16.336C16.464 21.8 16.5653 21.8373 16.64 21.912C16.7147 21.9867 16.752 22.0827 16.752 22.2V23.624C16.752 23.848 16.6933 24.088 16.576 24.344L12.88 32.616C12.7627 32.872 12.576 33 12.32 33H10.256ZM22.5959 33.16C21.1239 33.1493 20.0092 32.76 19.2519 31.992C18.4945 31.2133 18.0839 30.1947 18.0199 28.936C17.9985 28.36 17.9879 27.848 17.9879 27.4C17.9879 26.9413 17.9985 26.4133 18.0199 25.816C18.0625 25.016 18.2545 24.3067 18.5959 23.688C18.9479 23.0587 19.4599 22.5627 20.1319 22.2C20.8039 21.8267 21.6252 21.64 22.5959 21.64C24.0359 21.6507 25.1452 22.04 25.9239 22.808C26.7025 23.576 27.1239 24.5787 27.1879 25.816C27.2092 26.4133 27.2199 26.9413 27.2199 27.4C27.2199 27.848 27.2092 28.36 27.1879 28.936C27.1132 30.1947 26.6972 31.2133 25.9399 31.992C25.1825 32.76 24.0679 33.1493 22.5959 33.16ZM22.5959 30.84C23.1185 30.84 23.5079 30.6693 23.7639 30.328C24.0305 29.976 24.1745 29.4853 24.1959 28.856C24.2172 28.5467 24.2279 28.0507 24.2279 27.368C24.2279 26.6853 24.2172 26.2 24.1959 25.912C24.1745 25.304 24.0359 24.824 23.7799 24.472C23.5239 24.12 23.1292 23.9387 22.5959 23.928C22.0732 23.9387 21.6785 24.12 21.4119 24.472C21.1559 24.824 21.0172 25.304 20.9959 25.912C20.9852 26.2 20.9799 26.6853 20.9799 27.368C20.9799 28.0507 20.9852 28.5467 20.9959 28.856C21.0492 30.1787 21.5825 30.84 22.5959 30.84Z" fill="#E92020"/>
<mask id="path-5-inside-1" fill="white">
<path d="M6.07756 12.8007C6.07756 11.0176 6.78589 9.30757 8.04673 8.04673C9.30757 6.78589 11.0176 6.07756 12.8007 6.07756H15.8567C17.6319 6.07655 19.3347 5.37347 20.5935 4.12173L22.7327 1.98255C23.3575 1.35424 24.1003 0.855627 24.9184 0.51539C25.7366 0.175153 26.6139 0 27.5 0C28.3861 0 29.2634 0.175153 30.0816 0.51539C30.8997 0.855627 31.6425 1.35424 32.2673 1.98255L34.4065 4.12173C35.6653 5.37347 37.3681 6.07655 39.1433 6.07756H42.1993C43.9824 6.07756 45.6924 6.78589 46.9533 8.04673C48.2141 9.30757 48.9224 11.0176 48.9224 12.8007V15.8567C48.9235 17.6319 49.6265 19.3347 50.8783 20.5935L53.0175 22.7327C53.6458 23.3575 54.1444 24.1003 54.4846 24.9184C54.8248 25.7366 55 26.6139 55 27.5C55 28.3861 54.8248 29.2634 54.4846 30.0816C54.1444 30.8997 53.6458 31.6425 53.0175 32.2673L50.8783 34.4065C49.6265 35.6653 48.9235 37.3681 48.9224 39.1433V42.1993C48.9224 43.9824 48.2141 45.6924 46.9533 46.9533C45.6924 48.2141 43.9824 48.9224 42.1993 48.9224H39.1433C37.3681 48.9235 35.6653 49.6265 34.4065 50.8783L32.2673 53.0175C31.6425 53.6458 30.8997 54.1444 30.0816 54.4846C29.2634 54.8248 28.3861 55 27.5 55C26.6139 55 25.7366 54.8248 24.9184 54.4846C24.1003 54.1444 23.3575 53.6458 22.7327 53.0175L20.5935 50.8783C19.3347 49.6265 17.6319 48.9235 15.8567 48.9224H12.8007C11.0176 48.9224 9.30757 48.2141 8.04673 46.9533C6.78589 45.6924 6.07756 43.9824 6.07756 42.1993V39.1433C6.07655 37.3681 5.37347 35.6653 4.12173 34.4065L1.98255 32.2673C1.35424 31.6425 0.855627 30.8997 0.51539 30.0816C0.175153 29.2634 0 28.3861 0 27.5C0 26.6139 0.175153 25.7366 0.51539 24.9184C0.855627 24.1003 1.35424 23.3575 1.98255 22.7327L4.12173 20.5935C5.37347 19.3347 6.07655 17.6319 6.07756 15.8567V12.8007"/>
</mask>
<path d="M3.07756 12.8007C3.07756 14.4576 4.42071 15.8007 6.07756 15.8007C7.73442 15.8007 9.07756 14.4576 9.07756 12.8007H3.07756ZM12.8007 6.07756L12.8007 3.07756L12.8007 6.07756ZM15.8567 6.07756L15.8567 9.07756L15.8584 9.07756L15.8567 6.07756ZM20.5935 4.12173L22.7088 6.24901L22.7148 6.24305L20.5935 4.12173ZM22.7327 1.98255L24.854 4.10387L24.8599 4.0979L22.7327 1.98255ZM27.5 0L27.5 -3L27.5 0ZM32.2673 1.98255L30.14 4.09791L30.146 4.10387L32.2673 1.98255ZM34.4065 4.12173L32.2852 6.24306L32.2912 6.24901L34.4065 4.12173ZM39.1433 6.07756L39.1416 9.07756H39.1433V6.07756ZM42.1993 6.07756V3.07756V6.07756ZM48.9224 15.8567L45.9224 15.8567L45.9224 15.8584L48.9224 15.8567ZM50.8783 20.5935L48.751 22.7088L48.7569 22.7148L50.8783 20.5935ZM53.0175 22.7327L50.8961 24.854L50.9021 24.8599L53.0175 22.7327ZM53.0175 32.2673L50.9021 30.14L50.8961 30.146L53.0175 32.2673ZM50.8783 34.4065L48.7569 32.2852L48.751 32.2912L50.8783 34.4065ZM48.9224 39.1433L45.9224 39.1416V39.1433H48.9224ZM39.1433 48.9224L39.1433 45.9224L39.1416 45.9224L39.1433 48.9224ZM34.4065 50.8783L32.2912 48.751L32.2852 48.7569L34.4065 50.8783ZM32.2673 53.0175L30.146 50.8961L30.1401 50.9021L32.2673 53.0175ZM22.7327 53.0175L24.8599 50.9021L24.854 50.8961L22.7327 53.0175ZM20.5935 50.8783L22.7148 48.7569L22.7088 48.751L20.5935 50.8783ZM15.8567 48.9224L15.8584 45.9224H15.8567V48.9224ZM6.07756 42.1993L3.07756 42.1993L6.07756 42.1993ZM6.07756 39.1433L9.07756 39.1433L9.07756 39.1416L6.07756 39.1433ZM4.12173 34.4065L6.24901 32.2912L6.24305 32.2852L4.12173 34.4065ZM1.98255 32.2673L4.10388 30.146L4.0979 30.1401L1.98255 32.2673ZM0 27.5H-3H0ZM1.98255 22.7327L4.09791 24.8599L4.10387 24.854L1.98255 22.7327ZM4.12173 20.5935L6.24306 22.7148L6.24901 22.7088L4.12173 20.5935ZM6.07756 15.8567L9.07756 15.8584V15.8567H6.07756ZM9.07756 12.8007C9.07756 11.1439 7.73442 9.80072 6.07756 9.80072C4.42071 9.80072 3.07756 11.1439 3.07756 12.8007H9.07756ZM9.07756 12.8007C9.07756 11.8133 9.46982 10.8663 10.1681 10.1681L5.92541 5.92541C4.10196 7.74886 3.07756 10.222 3.07756 12.8007H9.07756ZM10.1681 10.1681C10.8663 9.46982 11.8133 9.07756 12.8007 9.07756L12.8007 3.07756C10.222 3.07756 7.74886 4.10196 5.92541 5.92541L10.1681 10.1681ZM12.8007 9.07756H15.8567V3.07756H12.8007V9.07756ZM15.8584 9.07756C18.4258 9.07609 20.8883 8.05929 22.7088 6.24901L18.4781 1.99446C17.781 2.68765 16.8381 3.077 15.855 3.07756L15.8584 9.07756ZM22.7148 6.24305L24.854 4.10387L20.6113 -0.138774L18.4722 2.00041L22.7148 6.24305ZM24.8599 4.0979C25.2059 3.74995 25.6173 3.47383 26.0704 3.28541L23.7665 -2.25463C22.5833 -1.76257 21.509 -1.04148 20.6054 -0.132806L24.8599 4.0979ZM26.0704 3.28541C26.5234 3.097 27.0093 3 27.5 3L27.5 -3C26.2185 -3 24.9497 -2.74669 23.7665 -2.25463L26.0704 3.28541ZM27.5 3C27.9907 3 28.4765 3.097 28.9296 3.28541L31.2335 -2.25463C30.0503 -2.74669 28.7815 -3 27.5 -3L27.5 3ZM28.9296 3.28541C29.3827 3.47383 29.7941 3.74995 30.1401 4.0979L34.3946 -0.132806C33.491 -1.04148 32.4167 -1.76258 31.2335 -2.25463L28.9296 3.28541ZM30.146 4.10387L32.2852 6.24305L36.5278 2.00041L34.3886 -0.138776L30.146 4.10387ZM32.2912 6.24901C34.1117 8.05929 36.5742 9.07609 39.1416 9.07756L39.145 3.07756C38.1619 3.077 37.219 2.68765 36.5219 1.99446L32.2912 6.24901ZM39.1433 9.07756H42.1993V3.07756H39.1433V9.07756ZM42.1993 9.07756C43.1867 9.07756 44.1337 9.46982 44.8319 10.1681L49.0746 5.92541C47.2511 4.10196 44.778 3.07756 42.1993 3.07756L42.1993 9.07756ZM44.8319 10.1681C45.5302 10.8663 45.9224 11.8133 45.9224 12.8007H51.9224C51.9224 10.222 50.898 7.74885 49.0746 5.92541L44.8319 10.1681ZM45.9224 12.8007V15.8567H51.9224V12.8007H45.9224ZM45.9224 15.8584C45.9239 18.4258 46.9407 20.8883 48.751 22.7088L53.0055 18.4781C52.3124 17.781 51.923 16.8381 51.9224 15.855L45.9224 15.8584ZM48.7569 22.7148L50.8961 24.854L55.1388 20.6113L52.9996 18.4722L48.7569 22.7148ZM50.9021 24.8599C51.25 25.2059 51.5262 25.6173 51.7146 26.0704L57.2546 23.7665C56.7626 22.5833 56.0415 21.509 55.1328 20.6054L50.9021 24.8599ZM51.7146 26.0704C51.903 26.5235 52 27.0093 52 27.5H58C58 26.2185 57.7467 24.9497 57.2546 23.7665L51.7146 26.0704ZM52 27.5C52 27.9907 51.903 28.4765 51.7146 28.9296L57.2546 31.2335C57.7467 30.0503 58 28.7815 58 27.5H52ZM51.7146 28.9296C51.5262 29.3827 51.25 29.7941 50.9021 30.1401L55.1328 34.3946C56.0415 33.491 56.7626 32.4167 57.2546 31.2335L51.7146 28.9296ZM50.8961 30.146L48.7569 32.2852L52.9996 36.5278L55.1388 34.3887L50.8961 30.146ZM48.751 32.2912C46.9407 34.1117 45.9239 36.5742 45.9224 39.1416L51.9224 39.145C51.923 38.1619 52.3123 37.219 53.0055 36.5219L48.751 32.2912ZM45.9224 39.1433V42.1993H51.9224V39.1433H45.9224ZM45.9224 42.1993C45.9224 43.1867 45.5302 44.1337 44.8319 44.8319L49.0746 49.0746C50.898 47.2511 51.9224 44.778 51.9224 42.1993H45.9224ZM44.8319 44.8319C44.1337 45.5302 43.1867 45.9224 42.1993 45.9224V51.9224C44.778 51.9224 47.2511 50.898 49.0746 49.0746L44.8319 44.8319ZM42.1993 45.9224H39.1433V51.9224H42.1993V45.9224ZM39.1416 45.9224C36.5742 45.9239 34.1117 46.9407 32.2912 48.751L36.5219 53.0055C37.219 52.3123 38.1619 51.923 39.145 51.9224L39.1416 45.9224ZM32.2852 48.7569L30.146 50.8961L34.3887 55.1388L36.5278 52.9996L32.2852 48.7569ZM30.1401 50.9021C29.7941 51.25 29.3827 51.5262 28.9296 51.7146L31.2335 57.2546C32.4167 56.7626 33.491 56.0415 34.3946 55.1328L30.1401 50.9021ZM28.9296 51.7146C28.4765 51.903 27.9907 52 27.5 52V58C28.7815 58 30.0503 57.7467 31.2335 57.2546L28.9296 51.7146ZM27.5 52C27.0093 52 26.5235 51.903 26.0704 51.7146L23.7665 57.2546C24.9497 57.7467 26.2185 58 27.5 58V52ZM26.0704 51.7146C25.6173 51.5262 25.2059 51.25 24.8599 50.9021L20.6054 55.1328C21.509 56.0415 22.5833 56.7626 23.7665 57.2546L26.0704 51.7146ZM24.854 50.8961L22.7148 48.7569L18.4722 52.9996L20.6113 55.1388L24.854 50.8961ZM22.7088 48.751C20.8883 46.9407 18.4258 45.9239 15.8584 45.9224L15.855 51.9224C16.8381 51.923 17.781 52.3124 18.4781 53.0055L22.7088 48.751ZM15.8567 45.9224H12.8007V51.9224H15.8567V45.9224ZM12.8007 45.9224C11.8133 45.9224 10.8663 45.5302 10.1681 44.8319L5.92541 49.0746C7.74885 50.898 10.222 51.9224 12.8007 51.9224V45.9224ZM10.1681 44.8319C9.46982 44.1337 9.07756 43.1867 9.07756 42.1993L3.07756 42.1993C3.07756 44.778 4.10196 47.2511 5.92541 49.0746L10.1681 44.8319ZM9.07756 42.1993V39.1433H3.07756V42.1993H9.07756ZM9.07756 39.1416C9.07609 36.5742 8.05929 34.1117 6.24901 32.2912L1.99446 36.5219C2.68765 37.219 3.077 38.1619 3.07756 39.145L9.07756 39.1416ZM6.24305 32.2852L4.10387 30.146L-0.138776 34.3886L2.00041 36.5278L6.24305 32.2852ZM4.0979 30.1401C3.74995 29.7941 3.47383 29.3827 3.28541 28.9296L-2.25463 31.2335C-1.76258 32.4167 -1.04148 33.491 -0.132806 34.3946L4.0979 30.1401ZM3.28541 28.9296C3.097 28.4765 3 27.9907 3 27.5H-3C-3 28.7815 -2.74669 30.0503 -2.25463 31.2335L3.28541 28.9296ZM3 27.5C3 27.0093 3.097 26.5234 3.28541 26.0704L-2.25463 23.7665C-2.74669 24.9497 -3 26.2185 -3 27.5L3 27.5ZM3.28541 26.0704C3.47383 25.6173 3.74995 25.2059 4.0979 24.8599L-0.132806 20.6054C-1.04148 21.509 -1.76257 22.5833 -2.25463 23.7665L3.28541 26.0704ZM4.10387 24.854L6.24305 22.7148L2.00041 18.4722L-0.138774 20.6113L4.10387 24.854ZM6.24901 22.7088C8.05929 20.8883 9.07609 18.4258 9.07756 15.8584L3.07756 15.855C3.077 16.8381 2.68765 17.781 1.99446 18.4781L6.24901 22.7088ZM9.07756 15.8567V12.8007H3.07756V15.8567H9.07756Z" fill="#E92020" mask="url(#path-5-inside-1)"/>
</svg>
