<svg width="100" height="100" viewBox="0 0 100 100" fill="none" xmlns="http://www.w3.org/2000/svg">
<g clip-path="url(#clip0)">
<path d="M100 78.9474L21.0526 0H0L100 100V78.9474Z" fill="#FF0000" stroke="#E92020"/>
<path d="M28.9798 23.5274L29.842 22.6982L30.6532 23.2458L33.9592 20.0661L33.3725 19.1603L34.2397 18.3263L36.2631 20.4301L35.561 21.2286C36.0042 21.1438 36.4262 21.1585 36.8268 21.2726C37.2306 21.3901 37.5937 21.6163 37.9159 21.9514C38.4214 22.4769 38.6487 23.0518 38.5978 23.6761C38.5501 24.3037 38.165 24.965 37.4424 25.66L35.1218 27.8919L35.6374 28.7238L34.7752 29.5531L32.131 26.8039L32.9932 25.9746L33.7333 26.4483L36.049 24.2211C36.407 23.8768 36.5905 23.5613 36.5993 23.2746C36.6145 22.988 36.4895 22.7068 36.2241 22.4309C35.8387 22.0302 35.3758 21.8842 34.8354 21.9929L32.0369 24.6844L32.4483 25.408L31.586 26.2373L28.9798 23.5274ZM37.5338 32.6285C37.041 32.1161 36.7231 31.562 36.58 30.9661C36.4433 30.3704 36.471 29.7779 36.6629 29.1886C36.8581 28.6026 37.2086 28.0663 37.7144 27.5798L37.9115 27.3903C38.4403 26.8816 39.0031 26.53 39.6 26.3354C40.2001 26.1376 40.7889 26.1055 41.3665 26.2392C41.9505 26.3731 42.4762 26.6863 42.9436 27.1789C43.6355 27.8982 43.9528 28.6522 43.8955 29.4407C43.8415 30.2261 43.4335 30.9852 42.6715 31.7182L41.8881 32.4716L38.8743 29.338L38.8353 29.3566C38.5091 29.7209 38.3322 30.1155 38.3046 30.5404C38.2769 30.9654 38.4464 31.3683 38.8128 31.7493C39.0655 32.0121 39.3337 32.2252 39.6174 32.3887C39.9075 32.5523 40.2225 32.6793 40.5624 32.7697L40.0499 34.0119C39.6609 33.9624 39.2461 33.827 38.8057 33.6057C38.3716 33.3845 37.9477 33.0588 37.5338 32.6285ZM39.8347 28.4333L41.5453 30.212L41.6734 30.0888C41.9953 29.7792 42.1851 29.467 42.2428 29.1523C42.307 28.8377 42.1937 28.5293 41.9031 28.2271C41.6251 27.938 41.3034 27.8238 40.938 27.8843C40.5759 27.9418 40.2116 28.1119 39.8451 28.3949L39.8347 28.4333ZM41.9685 37.0322L45.1199 31.6111L44.6126 30.8471L45.4798 30.0131L47.9581 32.5899L47.0959 33.4191L46.4473 32.9617L44.8469 35.4494L44.5327 35.9412L44.5612 35.9708L45.0981 35.7105L49.1949 33.8758L50.1237 34.8415L48.0582 38.8672L47.7573 39.4221L47.7858 39.4517L48.3425 39.1628L51.0104 37.716L50.5267 36.9863L51.3889 36.157L53.8151 38.6796L52.948 39.5136L52.2326 39.0065L46.5839 41.8311L45.4182 40.6191L47.1208 37.1036L47.5413 36.3673L47.5128 36.3377L46.7557 36.7339L43.1958 38.3083L41.9685 37.0322ZM52.9156 48.6215C52.4069 48.0926 52.1438 47.5364 52.1262 46.9526C52.1118 46.3657 52.3494 45.837 52.8388 45.3662C53.338 44.8861 53.9396 44.6963 54.6435 44.7971C55.3506 44.9011 56.0832 45.3473 56.8414 46.1356L57.519 46.8401L57.9132 46.461C58.1694 46.2146 58.3036 45.9401 58.316 45.6373C58.3348 45.3347 58.2004 45.034 57.913 44.7351C57.7645 44.5807 57.6105 44.46 57.451 44.3731C57.298 44.2864 57.1396 44.2269 56.9759 44.1947L56.1623 44.759L55.1672 43.7243L56.5327 42.373C56.9589 42.5006 57.3777 42.6796 57.789 42.91C58.2003 43.1404 58.5986 43.456 58.984 43.8567C59.6538 44.553 60.0203 45.2596 60.0837 45.9763C60.1471 46.6931 59.8799 47.339 59.2821 47.9139L57.0847 50.0274C57.0124 50.0969 56.9418 50.1648 56.8728 50.2311C56.807 50.3008 56.7443 50.3737 56.6848 50.4499L57.1415 51.0824L56.2792 51.9117L54.5638 50.1281C54.6211 50.0036 54.6848 49.8727 54.7552 49.7354C54.8256 49.5982 54.9054 49.4708 54.9947 49.3533C54.6137 49.391 54.2453 49.3564 53.8896 49.2496C53.5404 49.1429 53.2157 48.9335 52.9156 48.6215ZM54.3494 47.9822C54.5421 48.1826 54.7681 48.3288 55.0274 48.4209C55.2931 48.5131 55.5488 48.539 55.7946 48.4987L56.6371 47.6884L55.9547 46.9789C55.6514 46.6635 55.3486 46.4933 55.0461 46.468C54.7468 46.4461 54.4953 46.533 54.2916 46.7289C54.1011 46.9121 54.0102 47.1134 54.0188 47.3328C54.0339 47.5522 54.1441 47.7687 54.3494 47.9822ZM56.8763 52.5325L57.7385 51.7032L58.5497 52.2509L61.8557 49.0712L61.2691 48.1654L62.1362 47.3314L64.1596 49.4352L63.5515 50.1244L63.4428 50.2479C64.2802 49.9484 64.9516 50.0614 65.457 50.5869C65.5392 50.6723 65.6211 50.7706 65.7027 50.8818C65.7875 50.9963 65.8562 51.1072 65.9089 51.2146L64.4367 52.3365L63.789 51.5842C63.603 51.3711 63.409 51.2384 63.2069 51.1861C63.008 51.1371 62.7873 51.1344 62.5447 51.178L59.9334 53.6895L60.449 54.5215L59.5868 55.3507L56.8763 52.5325ZM62.9947 59.1011C62.5177 58.6051 62.286 58.0914 62.2995 57.5598C62.3163 57.0316 62.6203 56.4831 63.2115 55.9145L65.9312 53.2987L65.2251 52.5646L66.2352 51.5932L66.9412 52.3273L68.2469 51.0716L69.6258 52.5053L68.3202 53.7611L69.2632 54.7415L68.2531 55.713L67.3101 54.7325L64.5954 57.3435C64.3885 57.5425 64.2817 57.7274 64.2752 57.8981C64.2718 58.0721 64.3427 58.2346 64.4881 58.3857C64.5639 58.4645 64.6509 58.5452 64.7492 58.6277C64.8508 58.707 64.9398 58.7732 65.0161 58.8263L64.095 59.9493C63.9133 59.8458 63.7256 59.7197 63.5319 59.5709C63.3349 59.4252 63.1558 59.2686 62.9947 59.1011ZM64.6525 60.6177L65.5147 59.7884L66.3306 60.3409L69.6366 57.1613L69.0452 56.2505L69.9124 55.4165L72.0353 57.6238L67.7143 61.7796L68.2299 62.6116L67.3677 63.4408L64.6525 60.6177ZM71.7325 55.0507L72.9593 53.8708L74.3904 55.3587L73.1636 56.5387L71.7325 55.0507ZM70.1406 66.531C69.6478 66.0186 69.3363 65.4646 69.2061 64.869C69.079 64.2767 69.1211 63.6861 69.3325 63.0972C69.5438 62.5082 69.9122 61.961 70.4377 61.4556L70.5855 61.3134C71.1078 60.8111 71.6689 60.4675 72.2687 60.2826C72.8719 60.0945 73.4669 60.0755 74.0538 60.2255C74.644 60.3724 75.1808 60.6971 75.6641 61.1996C76.1222 61.6759 76.4431 62.1608 76.6269 62.6543C76.814 63.1446 76.9132 63.5929 76.9246 63.9993L75.3878 65.4584L74.3453 64.3745L75.1114 63.2678C75.1144 63.1131 75.0821 62.9513 75.0145 62.7824C74.9468 62.6135 74.853 62.4666 74.733 62.3418C74.3539 61.9476 73.925 61.7943 73.4462 61.8816C72.974 61.9691 72.4816 62.2593 71.9692 62.7521L71.8214 62.8942C71.2729 63.4218 70.97 63.9123 70.9128 64.3656C70.859 64.8158 70.9726 65.1871 71.2537 65.4794C71.497 65.7323 71.757 65.8711 72.0337 65.8959C72.3168 65.9207 72.6084 65.8458 72.9083 65.6712L74.0882 66.898L74.0729 66.9412C73.4225 67.4023 72.772 67.6233 72.1213 67.6042C71.4706 67.5851 70.8104 67.2274 70.1406 66.531ZM72.8835 69.1758L73.7458 68.3466L74.5617 68.8991L80.2228 63.4544L79.6314 62.5436L80.4985 61.7096L82.6215 63.9169L75.9454 70.3378L76.4657 71.1746L75.6035 72.0039L72.8835 69.1758ZM78.3148 75.03C77.822 74.5176 77.504 73.9635 77.3609 73.3677C77.2243 72.772 77.2519 72.1794 77.4439 71.5901C77.6391 71.0041 77.9895 70.4678 78.4954 69.9813L78.6925 69.7918C79.2213 69.2832 79.7841 68.9315 80.381 68.7369C80.9811 68.5391 81.5699 68.507 82.1475 68.6408C82.7315 68.7746 83.2572 69.0878 83.7246 69.5804C84.4165 70.2997 84.7338 71.0537 84.6765 71.8422C84.6225 72.6276 84.2145 73.3868 83.4525 74.1197L82.6691 74.8731L79.6553 71.7396L79.6162 71.7582C79.2901 72.1225 79.1132 72.5171 79.0855 72.942C79.0579 73.3669 79.2273 73.7699 79.5938 74.1509C79.8465 74.4136 80.1147 74.6268 80.3984 74.7902C80.6885 74.9538 81.0035 75.0808 81.3434 75.1712L80.8309 76.4134C80.4419 76.3639 80.0271 76.2285 79.5866 76.0072C79.1526 75.7861 78.7287 75.4603 78.3148 75.03ZM80.6157 70.8349L82.3263 72.6135L82.4544 72.4903C82.7763 72.1807 82.9661 71.8685 83.0238 71.5538C83.088 71.2392 82.9747 70.9308 82.6841 70.6286C82.4061 70.3395 82.0844 70.2253 81.719 70.2859C81.3569 70.3433 80.9926 70.5135 80.6261 70.7964L80.6157 70.8349Z" fill="white"/>
</g>
<defs>
<clipPath id="clip0">
<rect width="100" height="100" fill="white"/>
</clipPath>
</defs>
</svg>
